Patient5_TMGait_0pt45_1_right_09_EMG.mot
version=1
nRows=36
nColumns=33
inDegrees=no
endheader
time	1LAddLong	2LGlutMax	3LGlutMed	4LIliopsoas	5LSemiMemb	6LBicFemLong	7LRecFem	8LTensFascLat	9LVastMed	10LVasLat	11LGasMed	12lGasLat	13LTibAnt	14LPeroneusLong	15LSol	16LTibPost	17RAddLong	18RGlutMax	19RGlutMed	20RIliopsoas	21RSemiMemb	22RBicFemLong	23RRecFem	24RTensFascLat	25RVastMed	26RVasLat	27RGasMed	28RGasLat	29RTibAnt	30RPeroneusLong	31RSol	32RTibPost
14.59	-0.005646	0.008545	-0.14633	0.023193	-0.004883	0.35553	0.005035	-0.11826	-0.007324	0.048523	0.1149	0.005493	0.015411	0.011139	-0.054321	-0.13886	0.014648	-0.002747	-0.013733	0.072937	0.016937	-0.010071	0.006104	0.094757	0.005493	-0.007629	-0.00824	-0.022736	-0.002136	-0.014343	0.033722	-0.010071
14.591	-0.007935	-0.001373	-0.054016	0.020142	-0.005493	0.39764	-0.003357	-0.084839	-0.010223	0.036163	0.103	0.002289	-0.032349	0.00946	-0.11047	-0.031433	0.008087	-0.004883	-0.048676	0.06897	0.01236	-0.006866	0.01236	0.088348	0.00351	-0.000763	-0.003357	-0.031738	-0.006561	-0.026093	0.018158	-0.011902
14.592	0.001678	-0.003204	-0.052032	0.032959	-0.000305	0.29633	-0.007019	-0.06546	-0.004425	0.019989	0.009155	0.019379	-0.0737	0.014191	-0.047455	-0.050049	0.008392	-0.002594	0.010986	0.073547	0.033112	-0.004578	0.016632	0.039825	0.003357	0.002747	0.001221	-0.023346	-0.015717	-0.029449	0.00946	-0.010834
14.593	0.000153	0.001678	-0.090942	0.029449	0.007019	0.15137	-0.010071	-0.11444	-0.003967	0.010529	-0.062408	0.019836	-0.03479	0.002899	0.006714	-0.072327	0.010834	-0.002594	-0.017242	0.023956	0.042572	-0.005188	0.0177	-0.043182	0.011292	0.00412	0.005035	-0.01358	0.000458	0.00885	-0.002289	-0.014801
14.594	0.041046	0.010529	-0.014496	0.023346	-0.029297	-0.015411	-0.019379	-0.15564	-0.004272	-0.00473	0	-0.004425	0.12207	-0.010681	-0.035095	0.048523	0.013885	-0.006256	0.016479	-0.10788	0.043945	0.003357	0.012207	-0.14191	0.011749	-0.002899	0.005341	-0.002136	0.030823	0.038605	-0.008545	-0.005798
14.595	0.094452	0.006714	0.08194	0.007629	-0.011597	-0.015106	-0.022736	-0.0737	0.007172	-0.018921	-0.042267	-0.008392	0.15991	-0.004272	-0.02594	0.03006	0.016632	-0.001831	0.047302	-0.04715	0.040894	0.003052	0.011597	-0.21378	0.012512	-0.004425	0.006104	0.009155	0.052032	0.044556	-0.020599	-0.001373
14.596	0.10864	0.010376	0.21423	0	0.020447	-0.11353	-0.019531	0.050049	0.016022	-0.016479	-0.016479	-0.002899	0.051422	-0.007629	0.09201	-0.036316	0.002136	-0.005646	0.097961	-0.041962	0.059662	-0.000153	0.024872	-0.28519	0.009918	0.005188	0	0.022278	0.048218	0.06073	-0.026245	-0.002747
14.597	0.11154	0.017395	0.18387	-0.02594	0.033264	-0.21668	-0.021667	0.018768	0.018463	-0.011749	-0.047607	0.00412	0.02243	0.000916	0.086365	-0.053406	0.007172	-0.005341	0.12009	-0.81299	0.059967	-0.000305	0.014038	-0.28244	0.010376	-0.002441	0.001221	0.02655	0.031891	0.072021	-0.02121	-0.009613
14.598	0.11017	0.001831	0.052185	-0.019073	0.027771	-0.31509	-0.020294	-0.11963	0.019379	0.005646	-0.020447	0.003204	0.095825	0.000916	-0.049286	-0.034485	0.003967	-0.00885	0.093536	-0.037689	0.07309	-0.003357	0.013733	-0.20508	0.014648	-0.003052	-0.010223	0.016937	0.027008	0.05661	-0.018616	-0.006256
14.599	0.099182	0.011292	-0.083008	0.018463	0.007629	-0.4068	-0.016479	-0.28137	0.022278	0.015869	0.036011	0.015106	0.066528	0.00061	-0.13336	0.077972	0.010986	-0.004425	0.036316	0.19241	0.087585	-0.000916	0.010376	-0.051727	0.014496	-0.009003	-0.003967	-0.0177	0.018005	-0.089111	-0.015869	-0.003967
14.6	0.046082	0.016174	-0.1413	0.040436	-0.01709	-0.14282	-0.009155	-0.35126	0.03479	0.007629	-0.046539	0.025787	0.05188	0.009155	-0.11231	0.070343	0.006561	-0.007019	0.048676	0.41275	0.079956	-0.001678	0.01358	0.10742	0.008545	0.002594	0.000305	-0.043182	-0.00061	-0.1178	-0.019226	-0.003357
14.601	-0.005798	0.013275	-0.089874	0.001831	-0.010376	0.13947	0.000153	-0.37262	0.031891	-0.012817	-0.11856	0.01236	0.033112	0.015106	-0.12604	-0.037079	0.009003	-0.004578	0.015259	0.096283	0.085907	-0.000153	0.006561	0.17502	0.010986	-0.000458	0.001068	-0.037231	-0.006409	-0.047607	-0.011292	-0.007935
14.602	-0.016327	0.007935	-0.06958	-0.005493	0.042114	0.20309	0.002289	-0.34363	0.025482	-0.018463	-0.18646	0.009155	0.034637	0.008087	-0.07782	0.076447	-0.005798	-0.001984	-0.033112	0.1532	0.076599	0.009155	0.011292	0.21194	0.011139	0.004272	0.002289	-0.022888	-0.001526	-0.012817	0.000763	-0.005951
14.603	-0.036011	0.005493	-0.019836	-0.000458	0.034027	0.20248	0.011444	-0.20142	0.022125	-0.016479	-0.10895	0.014191	0.033875	0.002747	0.050659	0.16144	0.005035	-0.002747	-0.015411	0.1712	0.074005	0.006256	0.006409	0.15015	0.007935	-0.00061	0	-0.003357	-0.007935	-0.003357	-0.003052	-0.000153
14.604	-0.029755	0.006104	0.23865	0.001221	0.011292	0.10391	0.004272	0.1268	0.02121	-0.021667	0.16251	0.013123	0.019226	0.005798	0.07019	0.025787	0.00824	-0.002289	-0.055542	0.26489	0.068512	0.003815	-0.002136	0.16068	0.00885	0.001526	0.000305	0.00473	-0.03952	-0.030975	-0.017853	0.000153
14.605	0.020905	0.011597	0.30914	0.021667	0.031433	-0.049591	-0.001831	0.1944	0.012207	-0.02121	0.15457	-0.001373	0.014191	0.002594	0.055542	0.003815	0.009155	-0.002289	0.011139	-0.11459	0.063171	0.003967	-0.009003	0.097046	0.015717	0.009155	0.000458	0	-0.048981	-0.029297	-0.01297	0
14.606	0.021057	0.005646	0.0737	0.046692	-0.001068	-0.16281	-0.011597	0.1152	0.003357	-0.028229	0.14694	-0.005646	0.015869	0.009308	0.076599	0.079651	0.014954	-0.001373	0.051117	-0.022125	0.055847	0.006561	-0.018616	0.034637	0.00885	-0.002289	0.003052	-0.001526	-0.023499	-0.019836	-0.014191	0.001068
14.607	0.040894	0.011139	-0.069427	0.02121	-0.007019	-0.35065	-0.004883	0.079041	-0.005798	-0.03006	0.060425	0.012817	-0.001678	0.007782	0.088959	0.085449	0.018463	-0.001984	0.056305	0.026855	0.037079	0.006866	-0.010681	0.001373	0.007629	0.001526	0.004425	-0.011139	-0.011292	-0.0177	-0.014496	-0.000153
14.608	0.067749	0.006561	-0.084229	0.004425	-0.012665	-0.50201	-0.012665	0.15823	-0.004883	-0.027771	0.04425	-0.005493	-0.007324	-0.010681	0.07782	0.000153	0.018463	-0.007629	0.06546	-0.020752	0.054016	0.006866	-0.005493	-0.011749	0.013428	0.005951	0.003662	-0.011597	-0.017853	-0.006256	-0.01358	-0.002136
14.609	0.071106	0.006866	-0.11459	0.003662	-0.014496	-0.40695	-0.015717	0.068359	-0.012817	-0.028687	-0.021667	-0.005646	0.010071	-0.009003	0.039063	0.098419	0.024719	-0.003204	0.058136	-0.18417	0.047607	0.003815	-0.005951	-0.003052	0.00061	0.006256	0.007019	0.005341	-0.021667	0.005188	-0.015259	-0.005646
14.61	-0.15167	0.006714	-0.103	0.009308	-0.013885	-0.093384	-0.010376	-0.048065	-0.017395	-0.017853	0.004578	-0.008392	0.009613	-0.005188	-0.050354	0.03952	0.026093	-0.004272	0.039673	-0.021515	0.046539	0.000153	-0.003662	-0.023804	0.001068	0.005341	0.003052	-0.007782	-0.010223	0.010071	-0.011749	0.005035
14.611	-0.048981	-0.001984	-0.036316	0.013275	0.036774	0.032806	-0.014191	-0.14526	-0.005646	-0.022583	0.059967	0.012512	0.000763	0.007324	-0.003967	-0.001984	0.028229	0.001526	0.052948	-0.046387	0.062561	-0.000916	-0.004578	-0.052338	0.004425	-0.00824	-0.000305	-0.004578	-0.00946	0.010376	-0.002289	0.005341
14.612	-0.008698	-0.000763	-0.002136	0.004425	0.10696	-0.068054	-0.00885	-0.1535	0.00351	-0.012054	0.014496	0.013428	-0.001221	0.002594	0.035706	-0.076141	0.032349	-0.005951	0.038605	-0.064087	0.059814	-0.007477	-0.003052	-0.059052	0.005188	-0.00061	0.001984	-0.000763	-0.002136	0.010834	-0.013885	-0.000153
14.613	0.023041	-0.011597	0.033417	0.004578	0.06485	-0.033722	0.000916	-0.075989	0.011597	-0.0177	-0.11932	0.012207	0.016632	-0.014038	0.035706	-0.048676	0.031586	-0.005341	-0.046692	0.075531	0.046082	-0.012054	-0.000916	-0.04837	0.001831	0.001068	0.007324	0.004883	0.004272	0.006714	-0.013123	-0.00351
14.614	0.050354	-0.010071	0.092468	0.027924	0.012512	0.16159	0.002594	0.052795	0.009003	-0.008392	-0.29602	-0.001678	0.035858	-0.029449	-0.069275	-0.035706	0.026398	-0.001984	-0.15152	-0.024109	0.036621	-0.010223	0.003204	0.006104	0.002136	0.003815	0.007629	-0.009155	0.015106	-0.012512	-0.010986	-0.003052
14.615	0.049744	-0.004425	0.13092	-0.005493	0.036926	0.42007	0.00885	0.10895	0.012512	0.001526	-0.08194	-0.030212	0.032959	-0.023956	-0.15137	-0.059052	0.023041	-0.002747	-0.16434	0.10513	0.032043	0.003967	0.003967	-0.012512	0.000305	0.00061	-0.000458	-0.00946	0.011292	-0.024414	-0.007324	-0.002441
14.616	0.072937	-0.005341	0.20767	0.000305	0.053101	0.49194	0.013428	0.13275	0.012054	-0.011292	0.099182	-0.013885	-0.023193	-0.008545	-0.11047	-0.10559	0.021667	-0.005035	-0.16037	0.076752	0.036163	-0.00061	0.010376	0.01236	0.006256	0.002136	0.001373	-0.016785	0.01236	-0.017242	-0.018463	0.001831
14.617	0.075836	0.006561	0.18326	0.017242	-0.019836	0.40359	0.014801	0.19028	0.00885	-0.008545	0.082855	0.008392	-0.050964	0.01236	-0.02533	0.017853	0.019836	0.000763	-0.15335	0.092621	0.032806	0.001678	0.001221	0.013123	0.001984	-0.000458	0.005646	-0.000305	0.00061	-0.005646	-0.014343	0.006409
14.618	0.079041	0.011749	0.036163	0.004272	0.050201	0.34149	-0.002594	0.060577	-0.002289	0.001373	-0.023193	0.011902	-0.046082	0.00824	0.14145	-0.035858	0.016174	-0.004883	-0.049744	0.1088	0.018768	-0.006409	0.007477	-0.015259	-0.00061	-0.002441	0.000763	0.005035	-0.014343	-0.013428	-0.011597	0.001373
14.619	0.063782	0.009308	-0.011292	-0.00351	0.063324	0.21439	0.003815	-0.03891	0.003052	0.004425	-0.092163	0.006104	-0.03952	0.002594	0.19669	0.14236	0.014954	-0.005188	0.11704	-0.11887	0.013123	-0.001221	0.005951	-0.037689	0.004272	0.006714	0.000153	0.004578	-0.029144	-0.030518	-0.015106	0.002594
14.62	0.065918	0.00412	-0.060425	-0.006256	0.023804	0.059357	-0.010223	-0.10895	0.003815	-0.00351	0.033112	-0.009308	-0.0354	-0.005646	0.10315	0.014038	0.012207	-0.00412	0.15411	-0.10452	0.01358	-0.000153	0.008545	-0.0354	0.003662	0.005646	0.002899	-0.010986	-0.037079	-0.033875	-0.018311	-0.00061
14.621	0.099792	-0.016174	-0.089264	0.002899	0.007782	-0.13825	-0.007172	-0.12268	0.002899	-0.015717	0.028687	-0.015106	0.067749	-0.015259	0.02655	0.18219	0.014343	-0.009003	0.1857	-0.1326	0.005188	0	0.005341	-0.063629	0.001526	0.002594	0.002594	-0.013428	-0.000153	-0.02243	0.003967	-0.000153
14.622	0.09079	-0.024719	-0.055542	0.00885	-0.062561	-0.40649	-0.002289	-0.13916	-0.009308	-0.015717	-0.012207	-0.016937	0.10712	-0.009918	0.019226	0.006561	0.013733	-0.003204	0.14084	-0.033417	0.011139	-0.010376	0.008698	-0.066986	-0.00061	-0.001678	0.002289	-0.011444	0.054321	0.01236	-0.003052	-0.001526
14.623	0.078888	-0.028839	-0.10895	0.001068	-0.076752	-0.62912	-0.013428	-0.18982	-0.013428	-0.001526	-0.003204	-0.007172	0.04303	0.016937	0.007324	-0.041199	0.01236	-0.002747	0.19196	-0.040131	-0.011444	-0.007172	0.006714	-0.041199	0.009155	-0.002289	-0.001221	0.00351	0.022888	0.042725	-0.007782	-0.001373
14.624	0.048065	-0.028534	-0.10666	0.029602	-0.056458	-0.34866	-0.001984	-0.21805	-0.002441	0.028534	0.015564	0.022583	-0.001984	0.031128	-0.005798	-0.049896	0.009155	-0.000763	0.16113	-0.1445	-0.004883	-0.001984	0.009155	0.085907	0.007935	-0.009155	0.002899	-0.002289	0.010071	0.03418	-0.010529	-0.008698
14.625	0.054169	-0.02533	0.00824	0.005493	-0.019989	-0.12817	0.004425	-0.16235	0.06897	0.023346	0.077209	0.010986	0.019379	0.041504	-0.082092	-0.17807	0.011902	-0.002136	0.11902	-0.13275	0.003204	0.000763	0.005951	0.17456	0.007172	-0.002289	-0.000305	0.000305	0.020905	-0.001068	-0.028992	-0.009003
